<?xml version="1.0" encoding="UTF-8"?><svg viewBox="0 0 256.47491 302.42435" xmlns="http://www.w3.org/2000/svg"><defs><filter id="d" x="-.6875" y="-.36872" width="2.375" height="1.7374"><feGaussianBlur stdDeviation="9.82143"/></filter><filter id="a" x="-.32323" y="-.20911" width="1.6465" height="1.4182"><feGaussianBlur stdDeviation="6.11318"/></filter><filter id="k" x="-.21749" y="-.25138" width="1.435" height="1.5028"><feGaussianBlur stdDeviation="5.18842"/></filter><filter id="j" x="-.61828" y="-.58277" width="2.2366" height="2.1655"><feGaussianBlur stdDeviation="10.55582"/></filter><filter id="i" x="-.6071" y="-.3192" width="2.2142" height="1.6384"><feGaussianBlur stdDeviation="2.23587"/></filter><filter id="h" x="-.20228" y="-.6072" width="1.4046" height="2.2144"><feGaussianBlur stdDeviation="2.23587"/></filter><filter id="b" x="-.16212" y="-.3564" width="1.3242" height="1.7128"><feGaussianBlur stdDeviation="6.35126"/></filter><filter id="c" x="-.26311" y="-.22062" width="1.5262" height="1.4412"><feGaussianBlur stdDeviation="1.86878"/></filter><filter id="m" x="-.29184" y="-.46969" width="1.5837" height="1.9394"><feGaussianBlur stdDeviation="6.32608"/></filter><filter id="l" x="-.54886" y="-.66441" width="2.0977" height="2.3288"><feGaussianBlur stdDeviation="7.96996"/></filter><filter id="f" x="-.57354" y="-1.4081" width="2.1471" height="3.8162"><feGaussianBlur stdDeviation="6.18256"/></filter><filter id="g" x="-.2876" y="-1.4502" width="1.5752" height="3.9004"><feGaussianBlur stdDeviation="2.58659"/></filter><filter id="e" x="-.16498" y="-.36227" width="1.33" height="1.7246"><feGaussianBlur stdDeviation="2.25243"/></filter></defs><g transform="translate(-205.8 -293.28)"><path d="m297.74 365.77c27.138 0.30258 57.949 34.887 81.317 0 29.92-34.193 62.363-13.391 82.833 0v80.812c-27.915-2.8567-46.364-29.419-82.507-11.859-42.127 20.468-87.981-29.714-123.56-66.428 24.504 2.919 36.216 1.2694 41.921-2.5254z" fill="#d40000"/><path transform="matrix(1 0 0 .76206 90.452 263.13)" d="m292.14 193.1a17.143 31.964 0 1 1 -34.286 0 17.143 31.964 0 1 1 34.286 0z" fill="#d40000" filter="url(#d)"/><path d="m280.31 465.97-23.218-7.317-13.861 51.109 21.254 6.4241 15.825-50.216z" fill="#535d6c"/><path d="m265.5 508.6-22.38 1.2045-7.4787 74.929 30.058-0.3116-0.19984-75.822z" fill="#535d6c"/><path transform="matrix(.46859 .07528 -.21541 .67711 309.6 323.71)" d="m21.718 240.25a15.405 36.365 0 1 1 -30.81 0 15.405 36.365 0 1 1 30.81 0z" fill="#6f8a91" filter="url(#a)" opacity=".54808"/><path d="m275.79 466.42 22.807-8.5128 16.391 49.832-20.787 8.0076-18.411-49.327z" fill="#535d6c"/><path d="m247.04 370.85 11.859 10.31-39.133 45.01s-10.562-4.4301-11.24-9.8059 38.514-45.515 38.514-45.515l-2e-5 1e-5z" fill="#fca"/><path d="m269.86 340.76s4.2083 25.538-11.28 27.021 10.552 23.843 10.552 23.843l19.782 8.2676 33.094-14.913s-7.5285-12.225-10.031-12.562-13.448-2.319-16.173-12.369-0.41495-15.854-0.41495-15.854l-25.529-3.4349z" fill="#fca"/><path d="m267.12 345.47c5.8849 10.744 25.445 15.003 35.243 5.1137 3.7641-4.1141 2.9136-11.869 2.1798-16.998s-4.1074-5.8897-4.1006-8.0152 1.1313-1.8719 0.51408-4.3746c-6.2656-27.818-53.688-12.607-40.426 12.625-3.7319 7.1826 0.12169 11.174 6.5897 11.649z" fill="#ffb380"/><path d="m271.76 348.84s3.5254 21.393-9.4495 22.636 8.8394 19.974 8.8394 19.974l16.572 6.9259 27.723-12.493s-6.3067-10.241-8.4033-10.523-11.266-1.9427-13.548-10.361-0.34761-13.281-0.34761-13.281l-21.386-2.8774z" fill="#ffe6d5" filter="url(#k)"/><path d="m267.89 345.68c5.7656 10.526 24.929 14.699 34.529 5.01 3.6878-4.0308 2.8546-11.628 2.1356-16.653s-4.0241-5.7703-4.0175-7.8528 1.1084-1.834 0.50366-4.2859c-6.1387-27.254-52.6-12.351-39.607 12.369-3.6562 7.037 0.11922 10.948 6.4561 11.413z" fill="#fca"/><path d="m271.98 346.83c5.1329 9.3708 22.194 13.086 30.74 4.4602 3.2831-3.5884 2.5413-10.352 1.9012-14.826s-3.5825-5.1371-3.5766-6.991 0.98672-1.6327 0.44838-3.8156c-5.465-24.263-46.827-10.996-35.26 11.011-3.255 6.2648 0.10613 9.7465 5.7476 10.161z" fill="#ffe6d5" filter="url(#j)"/><path d="m269.3 348.09c12.538 13.071 26.191 9.2316 34.417 1.4728-14.553 10.143-25.788 6.1748-34.417-1.4728z" fill="#ffb380"/><path d="m290.42 323.85s2.7779 14.9 5.8084 14.647c-0.44136 0.17192-6.3155 3.8076-8.8388 1.2627 0.69726-1.2367 3.1921 1.681 5.3688-1.3928 0.81991-1.7809-1.1302-6.0501-2.3384-14.517z" fill="#ffb380"/><path d="m290.42 323.85s2.7779 14.9 5.8084 14.647c-0.44136 0.17192-6.3155 3.8076-8.8388 1.2627 0.69726-1.2367 3.1921 1.681 5.3688-1.3928 0.81991-1.7809-1.1302-6.0501-2.3384-14.517z" fill="#ffb380" filter="url(#i)"/><path d="m274.83 330.74c0.14065 1.798 12.691-0.98443 14.467-3.9984 4.3018 0.64341 10.735-0.22945 11.178-1.4226 1.7027-4.5798-4.6746-2.635-11.629-1.0496s-16.541-0.92746-14.284 6.4706l0.26788-2e-5z" fill="#ffb380"/><path d="m274.83 330.74c0.14065 1.798 12.691-0.98443 14.467-3.9984 4.3018 0.64341 10.735-0.22945 11.178-1.4226 1.7027-4.5798-4.6746-2.635-11.629-1.0496s-16.541-0.92746-14.284 6.4706l0.26788-2e-5z" fill="#ffb380" filter="url(#h)"/><path d="m287.32 326.2c0.84877 1.8448-2.5194 2.5192-5.6442 3.5082s-5.5627 1.8298-5.7602 0.63113c-0.5328-3.234 1.5685-3.0128 4.6933-4.0019s6.4079-1.0954 6.7111-0.13743z" fill="#fff"/><path d="m290.61 325.35c-0.0541 1.7074 2.7767 1.1278 5.5219 0.87174s4.9095-0.40228 4.6703-1.3958c-0.64537-2.6805-2.2014-1.8215-4.9466-1.5654s-5.3242 1.248-5.2457 2.0895z" fill="#fff"/><path d="m273.85 327.79s9.1964-4.2857 12.768-3.4822" fill="none" stroke="#000"/><path d="m290.36 323.95s8.4821-0.625 9.1964-2.7679" fill="none" stroke="#000"/><path d="m299.68 341.47c1.6163 2.5565-0.35863 6.4995-5.2404 6.2186-4.8401-0.27842-9.5687 0.93255-9.655 0.2866-0.0989-0.74101 4.0474-1.0987 8.7613-2.3986s5.2702-4.6137 6.1341-4.1066z" fill="#241c1c"/><path d="m316.45 373.51-12.591 9.4031 35.689 47.787s10.861-3.6351 11.936-8.9458-35.034-48.244-35.034-48.244l2e-5 1e-5z" fill="#fca"/><path d="m208.26 417.86c1.517-10.859 11.535-8.3905 11.535-8.3905l23.973 43.264-3.7434 5.6921s-33.281-29.707-31.764-40.566z" fill="#fca"/><path transform="matrix(.22135 .24923 -.49001 .4352 291.41 351.81)" d="m4.2857 130.25a10.714 31.607 0 1 1 -21.429 0 10.714 31.607 0 1 1 21.429 0z" fill="#ffe6d5" filter="url(#b)" opacity=".54808"/><path d="m352.35 424.1c-0.70238-10.942-10.876-9.2279-10.876-9.2279l-27.135 41.354 3.3081 5.9555s35.405-27.14 34.703-38.082z" fill="#fca"/><path transform="matrix(-.22135 .24923 .49001 .4352 268.06 352.53)" d="m4.2857 130.25a10.714 31.607 0 1 1 -21.429 0 10.714 31.607 0 1 1 21.429 0z" fill="#ffe6d5" filter="url(#b)" opacity=".54808"/><path d="m257.78 367.97s14.415 17.143 24.394 16.071 20.329-8.5714 19.589-13.929 16.866 2.8571 16.866 2.8571 6.4495 11.429 11.105 15.357c2.4727 2.0867-8.0362 18.214-8.0362 18.214s-4.5227-7.0144-5.1932-5.3497c-7.2437 17.984-22.657 50.095-17.154 57.998 4.7157 6.7724-42.977 1.7603-42.977 1.7603 9.8284-22.663-12.917-54.815-14.158-59.888 0 0 1.5326-1.1295-5.3796 5.8368-1.4805 1.4921-11.031-15.357-11.031-15.357s9.9751-4.2857 16.828-20.357l15.146-3.2143z" fill="#80b3ff"/><path d="m256.05 459.76c-0.5813-1.1995 48.173-2.4055 45.637 0-5.6648 5.3748-9.9369 13.418-15.812 21.568-4.4765 2.3502-8.9531 1.5653-13.43 0.38848-7.2687-17.08-14.251-17.531-16.396-21.957z" fill="#d7eef4"/><path transform="translate(141.17 198.26)" d="m146.09 272.51a8.5232 10.165 0 1 1 -17.046 0 8.5232 10.165 0 1 1 17.046 0z" fill="#fff" filter="url(#c)"/><path d="m273.44 474.42c-0.12725 1.2675-0.58893 7.3753 7.556 6.4745 2.901-0.32085 5.0615-2.6568 5.0615-6.2899 0-9.8345-0.20318-14.736-0.20318-14.736" fill="none" stroke="#045" stroke-dasharray="4.18484951, 1.04621238" stroke-width="1.0462"/><path d="m285.79 479.31c3.9193-7.455 7.1667-13.986 14.038-18.663" fill="none" stroke="#045" stroke-dasharray="4.18484951, 1.04621238" stroke-width="1.0462"/><path d="m272.46 479.15c-1.7544-10.631-9.8827-13.64-15.159-18.663" fill="none" stroke="#045" stroke-dasharray="4.18484951, 1.04621238" stroke-width="1.0462"/><path d="m291.68 507 23.271 0.7644 5.1592 75.19-28.63-0.1331 0.19984-75.822z" fill="#535d6c"/><path transform="matrix(.21356 .15894 .32025 -.40474 290.83 495.63)" d="m4.2857 130.25a10.714 31.607 0 1 1 -21.429 0 10.714 31.607 0 1 1 21.429 0z" fill="#ffe6d5" filter="url(#b)" opacity=".54808"/><path d="m304.14 470.85c-3.557-3.6226-6.0251-8.294-4.6952-11.345 1.1842-2.7169 4.5644-4.3068 8.2529-5.5964 7.4352-2.5995 10.578-0.10941 13.177 7.3258 0.90197 4.619-12.495 12.423-16.735 9.6159z" fill="#fca"/><path d="m252.85 468.08c3.8174-3.347 6.6273-7.8212 5.5287-10.963-0.97816-2.7977-4.2303-4.6354-7.8122-6.1966-7.2205-3.1471-10.54-0.89848-13.687 6.322-1.2442 4.5388 11.533 13.321 15.971 10.838z" fill="#fca"/><path transform="matrix(1.0674 0 0 1 132.14 202.8)" d="m163.64 203.88c-1.312 8.0312-9.4604 11.211-16.214 7.3128-5.425-3.1309-10.118-13.875-8.3775-7.3128 1.4826 5.5888-2.2365 6.6157-3.2989 6.712-14.215 1.2892-21.804 10.274-24.132-6.712-1.0454-7.6288-15.449-24.668-4.4456-27.457 4.1183-1.0436 21.561 12.939 30.457 11.294 12.19-2.2532 25.591-12.292 30.814-12.088 12.496 0.48916 2.7692 16.665-4.8025 28.25z" fill="#acf" filter="url(#m)"/><path transform="translate(141.17 192.26)" d="m155.56 245.55a17.425 14.395 0 1 1 -34.85 0 17.425 14.395 0 1 1 34.85 0z" fill="#acf" filter="url(#l)"/><path d="m258.72 368.04s8.8478 14.348 21.62 13.89c4.8502-0.17235-11.688 9.8029-10.751 10.607 1.1307 0.96969 14.023-9.5964 14.023-9.5964s11.682 10.669 12.621 9.5964c0.87978-1.005-13.938-10.352-9.349-11.238 6.9098-1.3343 12.621-15.026 12.621-15.026s-9.7724 12.814-16.711 13.637c-8.7678 1.0404-24.074-11.869-24.074-11.869z" fill="#d40000"/><path transform="matrix(.76812 0 0 1 174.52 198.17)" d="m145.36 183.33a3.0804 1.9196 0 1 1 -6.1607 0 3.0804 1.9196 0 1 1 6.1607 0z" fill="#a00"/><path transform="translate(141.17 198.26)" d="m292.14 193.1a17.143 31.964 0 1 1 -34.286 0 17.143 31.964 0 1 1 34.286 0z" fill="#f00" filter="url(#d)"/><path transform="translate(141.17 198.26)" d="m146.09 272.51a8.5232 10.165 0 1 1 -17.046 0 8.5232 10.165 0 1 1 17.046 0z" fill="#fff" filter="url(#c)" opacity=".54808"/><path transform="matrix(-.21356 .15894 -.32025 -.40474 268.65 494.92)" d="m4.2857 130.25a10.714 31.607 0 1 1 -21.429 0 10.714 31.607 0 1 1 21.429 0z" fill="#ffe6d5" filter="url(#b)" opacity=".54808"/><path transform="matrix(.46894 -.08654 .00461 .76973 248.15 362.59)" d="m21.718 240.25a15.405 36.365 0 1 1 -30.81 0 15.405 36.365 0 1 1 30.81 0z" fill="#6f8a91" filter="url(#a)" opacity=".54808"/><path transform="matrix(-.46859 .07528 .21541 .67711 250.25 326.74)" d="m21.718 240.25a15.405 36.365 0 1 1 -30.81 0 15.405 36.365 0 1 1 30.81 0z" fill="#6f8a91" filter="url(#a)" opacity=".54808"/><path transform="matrix(-.46894 -.08654 -.00461 .76973 311.7 365.62)" d="m21.718 240.25a15.405 36.365 0 1 1 -30.81 0 15.405 36.365 0 1 1 30.81 0z" fill="#6f8a91" filter="url(#a)" opacity=".54808"/><path d="m321.12 581.65c0 6.1368-7.3851 4.326-15.614 4.326s-14.185 1.8108-14.185-4.326 0.24228-10.04 17.043-5.7545c7.9736 2.034 12.757-0.3823 12.757 5.7545z" fill="#e5d5ff"/><path d="m266.12 581.8c0 6.1368-7.5622 4.326-15.988 4.326s-14.525 1.8108-14.525-4.326 0.24809-10.04 17.451-5.7546c8.1647 2.0341 13.063-0.3822 13.063 5.7546z" fill="#e5d5ff"/><path transform="matrix(.81904 0 0 .42929 -13.18 293.27)" d="m403.74 671.86c0 5.3278-6.4115 3.7557-13.556 3.7557s-12.315 1.5721-12.315-3.7557 0.21034-8.7166 14.796-4.9959c6.9224 1.7659 11.075-0.33187 11.075 4.9959z" fill="#fff" filter="url(#f)"/><path d="m260.77 581.54c0 2.1643-5.3494 1.5256-11.31 1.5256s-10.275 0.6387-10.275-1.5256 0.17549-3.5409 12.345-2.0295c5.7756 0.7174 9.2404-0.1348 9.2404 2.0295z" fill="#fff" filter="url(#g)"/><path d="m260.66 335.57 6.1149 8.6494 7.5525-2.3529s-6.2699-3.0363-8.6098-5.8115c-1.0703-1.2694-0.4876-3.4601-0.67962-5.0671-0.62284-5.2123-0.13117-10.121 6.7356-13.896l11.909-0.61054s3.2668-0.35864 4.1672 1.0819-4.11 2.58-4.11 2.58c0.06 0 4.6575 0.2997 6.016-1.6668 0.87599-1.2681-0.11379-5.0548-0.86158-5.0548 7.6948 2.0927 1.2081-7.2626 8.4904 0.90785 1.8007 1.6206 1.6251 3.4244 1.6251 3.4244l1.8007 2.521s-2.1609-19.448-24.13-14.046-18.726 20.908-18.726 20.908l2.7056 8.4334z" fill="#520"/><path transform="matrix(.97951 0 0 1.3254 183.01 257.5)" d="m110.54 42.228c-0.21666 0.5376-3.4428-0.38804-4.0256 0.4866-0.42473 0.63753 0.46558 1.6088-0.20993 1.9699-0.544 0.29083-2.2003-2.8079-2.7954-2.5245-2.9658 1.4126-6.186 1.5525-8.0622 1.5525-2.5135 0-3.732 1.5898-5.4513 0.84032-0.45599-0.19878-3.7375 1.4583-5.3502 2.2435-0.62058 0.30218-4.9067 6.1976-6.1126 6.6743-1.6414 0.64893-0.10928-3.6817-0.13579-3.8492-0.32951-2.0833 9.0154-8.4778 9.6872-8.6614 1.9796-0.54077 5.559-0.75885 7.545-1.4264 2.7736-0.93224 9.8667-1.6093 12.991 0.30893 1.325 0.8134 1.9194 1.764 1.9194 2.3853z" fill="#803300" filter="url(#e)" opacity=".87019"/><path transform="translate(181.19 270.43)" d="m103.04 57.189a1.3574 1.3574 0 1 1 -2.7148 0 1.3574 1.3574 0 1 1 2.7148 0z" opacity=".87019"/><path transform="translate(196.1 267.4)" d="m103.04 57.189a1.3574 1.3574 0 1 1 -2.7148 0 1.3574 1.3574 0 1 1 2.7148 0z" opacity=".87019"/></g></svg>